<svg xmlns="http://www.w3.org/2000/svg" width="64" height="64" viewBox="0 0 64 64">
  <g id="Grupo_2" data-name="Grupo 2" transform="translate(-161 -196)">
    <circle id="Elipse_59" data-name="Elipse 59" cx="32" cy="32" r="32" transform="translate(161 196)" fill="#46abff"/>
    <g id="left-arrow" transform="translate(179.513 175.075)">
      <g id="Grupo_1" data-name="Grupo 1" transform="translate(0 41.674)">
        <path id="Caminho_17" data-name="Caminho 17" d="M26.087,50.986,26.13,51H7.634l5.814-5.827a1.527,1.527,0,0,0,0-2.147l-.9-.905a1.513,1.513,0,0,0-2.136,0L.441,52.081a1.524,1.524,0,0,0,0,2.144l9.967,9.967a1.515,1.515,0,0,0,2.136,0l.9-.905a1.5,1.5,0,0,0,.441-1.068,1.452,1.452,0,0,0-.441-1.048l-5.88-5.86H26.108a1.566,1.566,0,0,0,1.533-1.551V52.48A1.536,1.536,0,0,0,26.087,50.986Z" transform="translate(0 -41.674)" fill="#fff"/>
      </g>
    </g>
  </g>
</svg>
